<svg width="56" height="56" viewBox="0 0 56 56" fill="none" xmlns="http://www.w3.org/2000/svg">
<mask id="mask0_1190_72" style="mask-type:alpha" maskUnits="userSpaceOnUse" x="0" y="0" width="56" height="56">
<rect width="56" height="56" fill="#C4C4C4"/>
</mask>
<g mask="url(#mask0_1190_72)">
</g>
<g clip-path="url(#clip0_1190_72)">
<path d="M55.1685 12.4414C54.4956 11.6425 53.5106 11.1842 52.4659 11.1842H49.9587C48.8456 9.22475 46.764 7.99405 44.4705 7.99405H43.9519V4.17902C43.9519 3.57494 43.4622 3.08527 42.8581 3.08527C38.7812 3.08527 35.4642 6.4022 35.4642 10.4792V13.8971C35.4642 16.2759 34.151 18.4314 32.0369 19.5222L28.4658 21.3648C27.929 21.6419 27.7183 22.3015 27.9953 22.8383C28.1894 23.2147 28.5718 23.4308 28.9682 23.4308C29.1371 23.4308 29.3085 23.3917 29.4688 23.3089L33.0399 21.4662C35.8847 19.9984 37.6517 17.0981 37.6517 13.8972V10.4791C37.6517 7.98344 39.4171 5.89218 41.7644 5.38828V9.08781C41.7644 9.69189 42.2542 10.1816 42.8581 10.1816H44.4705C46.1334 10.1816 47.626 11.1715 48.2729 12.7036C48.444 13.1086 48.8408 13.3718 49.2805 13.3718H52.4659C52.8639 13.3718 53.2391 13.5464 53.4955 13.8508C53.7519 14.1552 53.8602 14.5546 53.7926 14.9469L53.3878 17.2949C53.1308 18.7843 51.8476 19.8652 50.3364 19.8652H45.467C45.4555 19.8652 45.4445 19.8665 45.4331 19.8669C45.4217 19.8666 45.4107 19.8652 45.3992 19.8652C44.7952 19.8652 44.3054 20.3548 44.3054 20.9589V26.3069C44.3054 30.1757 43.5586 33.9478 42.0858 37.5186C41.9951 37.7386 41.9787 37.9822 42.0387 38.2124L44.729 48.5012C44.7761 48.6809 44.8679 48.8456 44.9962 48.9799L45.9575 49.9866C46.1313 50.1686 46.0861 50.3624 46.0435 50.4616C46.001 50.5609 45.8921 50.7276 45.6405 50.7276H41.9967L37.2962 38.5484V33.4904C37.2962 32.8864 36.8064 32.3967 36.2024 32.3967C35.5983 32.3967 35.1087 32.8864 35.1087 33.4904V38.7522C35.1087 38.8868 35.1335 39.0204 35.182 39.146L39.652 50.7274H35.8044C35.2764 47.3057 32.3117 44.6775 28.7445 44.6775H27.51L27.0217 41.7804C26.4999 38.684 24.178 36.2623 21.1062 35.6109L19.0373 35.1721C18.4469 35.0469 17.8658 35.4242 17.7404 36.0151C17.6151 36.606 17.9925 37.1866 18.5835 37.3119L20.6524 37.7507C22.8396 38.2146 24.493 39.939 24.8645 42.1438L25.2915 44.6774H18.5525C17.9486 44.6774 17.4588 45.1671 17.4588 45.7712C17.4588 46.3752 17.9486 46.8649 18.5525 46.8649H28.7445C31.1017 46.8649 33.0797 48.5189 33.5789 50.7273H18.3738C12.9017 50.7273 8.44982 46.2754 8.44982 40.8033C8.44982 36.7018 10.714 32.9857 14.3588 31.1051L20.7232 27.8212C21.2599 27.5442 21.4706 26.8845 21.1936 26.3477C20.9167 25.8108 20.2566 25.6001 19.7201 25.8772L13.3558 29.1611C11.6097 30.0621 10.1286 31.3146 8.97788 32.8066C8.85702 32.2333 8.79555 31.6454 8.79555 31.0457C8.79555 27.9917 10.4503 25.161 13.1139 23.6584C13.8355 23.2514 14.1778 22.436 13.966 21.6293C13.743 20.78 12.9801 20.1859 12.1077 20.1791C12.1026 20.179 12.0978 20.1783 12.0928 20.1783C12.0896 20.1783 12.0863 20.1783 12.0831 20.1784C12.0818 20.1784 12.0805 20.1786 12.0792 20.1786C5.54851 20.1859 0.132002 25.5646 0.00228178 32.1752C-0.0882814 36.7879 2.45318 41.0855 6.5085 43.24C7.63934 48.7544 12.5299 52.9148 18.3738 52.9148H45.6406C46.7094 52.9148 47.6344 52.3044 48.0547 51.3218C48.4751 50.3391 48.2777 49.2485 47.5395 48.4755L46.7737 47.6736L44.2469 38.0102C45.7374 34.2752 46.4928 30.3396 46.4928 26.3067V22.0526H50.3364C52.9153 22.0526 55.1052 20.2079 55.5433 17.6665L55.9481 15.3183C56.1258 14.2889 55.8416 13.2403 55.1685 12.4414ZM2.18947 32.2182C2.28867 27.1633 6.14144 22.9853 10.9901 22.4289C8.26027 24.4225 6.60826 27.6224 6.60826 31.0457C6.60826 32.5198 6.9016 33.9393 7.47987 35.2737C6.73119 36.886 6.30846 38.6614 6.26744 40.5077C3.68344 38.5896 2.12505 35.5011 2.18947 32.2182Z" fill="#2A5A32"/>
<path d="M45.5779 14.6704C45.7812 14.4669 45.8983 14.1848 45.8983 13.8971C45.8983 13.6094 45.7813 13.3273 45.5779 13.1238C45.3744 12.9204 45.0921 12.8033 44.8046 12.8033C44.5158 12.8033 44.2348 12.9204 44.0313 13.1238C43.8269 13.3273 43.7108 13.6094 43.7108 13.8971C43.7108 14.1848 43.8269 14.4669 44.0313 14.6704C44.2348 14.8738 44.5169 14.9908 44.8046 14.9908C45.0921 14.9908 45.3733 14.8738 45.5779 14.6704Z" fill="#2A5A32"/>
<path d="M24.594 25.6867C24.8818 25.6867 25.1628 25.5708 25.3673 25.3673C25.5707 25.1628 25.6878 24.8817 25.6878 24.5941C25.6878 24.3064 25.5709 24.0242 25.3673 23.8197C25.1639 23.6162 24.8818 23.5003 24.594 23.5003C24.3053 23.5003 24.0231 23.6162 23.8198 23.8197C23.6163 24.0231 23.5003 24.3053 23.5003 24.5941C23.5003 24.8817 23.6163 25.1639 23.8198 25.3673C24.0232 25.5708 24.3054 25.6867 24.594 25.6867Z" fill="#2A5A32"/>
</g>
<defs>
<clipPath id="clip0_1190_72">
<rect width="56" height="56" fill="white"/>
</clipPath>
</defs>
</svg>
