<svg width="57" height="56" viewBox="0 0 57 56" fill="none" xmlns="http://www.w3.org/2000/svg">
<mask id="mask0_1190_145" style="mask-type:alpha" maskUnits="userSpaceOnUse" x="0" y="0" width="56" height="56">
<rect width="56" height="56" fill="#C4C4C4"/>
</mask>
<g mask="url(#mask0_1190_145)">
</g>
<path d="M28.5117 48.4258H34.4883C35.0383 48.4258 35.4844 47.9798 35.4844 47.4297V42.4492H40.4648C41.0149 42.4492 41.4609 42.0033 41.4609 41.4531V35.4766C41.4609 34.9264 41.0149 34.4805 40.4648 34.4805H35.4844V29.5C35.4844 28.9499 35.0383 28.5039 34.4883 28.5039H28.5117C27.9616 28.5039 27.5156 28.9499 27.5156 29.5V34.4805H22.5352C21.985 34.4805 21.5391 34.9264 21.5391 35.4766V41.4531C21.5391 42.0033 21.985 42.4492 22.5352 42.4492H27.5156V47.4297C27.5156 47.9798 27.9616 48.4258 28.5117 48.4258ZM23.5312 40.457V36.4727H28.5117C29.0619 36.4727 29.5078 36.0267 29.5078 35.4766V30.4961H33.4922V35.4766C33.4922 36.0267 33.9382 36.4727 34.4883 36.4727H39.4688V40.457H34.4883C33.9382 40.457 33.4922 40.903 33.4922 41.4531V46.4336H29.5078V41.4531C29.5078 40.903 29.0619 40.457 28.5117 40.457H23.5312Z" fill="#7C6645"/>
<path d="M31.5 55C32.0501 55 32.4961 54.554 32.4961 54.0039C32.4961 53.4538 32.0501 53.0078 31.5 53.0078C30.9499 53.0078 30.5039 53.4538 30.5039 54.0039C30.5039 54.554 30.9499 55 31.5 55Z" fill="#7C6645"/>
<path d="M9.98438 55H27.0176C27.5677 55 28.0137 54.5541 28.0137 54.0039C28.0137 53.4538 27.5677 53.0078 27.0176 53.0078H9.98438C8.88588 53.0078 7.99219 52.1141 7.99219 51.0156V24.5195H11.9766V29.5C11.9766 30.0501 12.4225 30.4961 12.9727 30.4961H18.9492C19.4994 30.4961 19.9453 30.0501 19.9453 29.5V24.5195H43.0547V29.5C43.0547 30.0501 43.5007 30.4961 44.0508 30.4961H50.0273C50.5774 30.4961 51.0234 30.0501 51.0234 29.5V24.5195H55.0078V51.0156C55.0078 52.1141 54.1141 53.0078 53.0156 53.0078H35.9824C35.4324 53.0078 34.9863 53.4538 34.9863 54.0039C34.9863 54.5541 35.4324 55 35.9824 55H53.0156C55.2126 55 57 53.2126 57 51.0156V17.5469C57 15.3499 55.2126 13.5625 53.0156 13.5625H44.4492V7.98438C44.4492 5.78739 42.6618 4 40.4648 4H22.5352C20.3382 4 18.5508 5.78739 18.5508 7.98438V13.5625H9.98438C7.78739 13.5625 6 15.3499 6 17.5469V51.0156C6 53.2126 7.78739 55 9.98438 55ZM17.9531 28.5039H13.9688V24.5195H17.9531V28.5039ZM49.0312 28.5039H45.0469V24.5195H49.0312V28.5039ZM20.543 7.98438C20.543 6.88588 21.4367 5.99219 22.5352 5.99219H40.4648C41.5633 5.99219 42.457 6.88588 42.457 7.98438V13.5625H20.543V7.98438ZM9.98438 15.5547H53.0156C54.1141 15.5547 55.0078 16.4484 55.0078 17.5469V22.5273H7.99219V17.5469C7.99219 16.4484 8.88588 15.5547 9.98438 15.5547Z" fill="#7C6645"/>
</svg>
