<svg width="58" height="56" viewBox="0 0 58 56" fill="none" xmlns="http://www.w3.org/2000/svg">
<mask id="mask0_1190_158" style="mask-type:alpha" maskUnits="userSpaceOnUse" x="0" y="0" width="56" height="56">
<rect width="56" height="56" fill="#C4C4C4"/>
</mask>
<g mask="url(#mask0_1190_158)">
</g>
<path d="M53.5069 12.9476C53.317 12.7577 53.0559 12.65 52.7887 12.65C52.5206 12.65 52.2596 12.7577 52.0696 12.9476C51.8808 13.1364 51.773 13.3976 51.773 13.6657C51.773 13.9328 51.8808 14.1949 52.0696 14.3838C52.2595 14.5727 52.5205 14.6814 52.7887 14.6814C53.0558 14.6814 53.317 14.5728 53.5069 14.3838C53.6958 14.1949 53.8034 13.9329 53.8034 13.6657C53.8034 13.3976 53.6958 13.1364 53.5069 12.9476Z" fill="#4E325F"/>
<path d="M30.1791 36.8683C29.9893 36.6784 29.7282 36.5706 29.4609 36.5706C29.1928 36.5706 28.9317 36.6784 28.7418 36.8683C28.553 37.0571 28.4452 37.3182 28.4452 37.5863C28.4452 37.8535 28.553 38.1155 28.7418 38.3045C28.9317 38.4934 29.1927 38.6021 29.4609 38.6021C29.7281 38.6021 29.9892 38.4935 30.1791 38.3045C30.368 38.1156 30.4757 37.8536 30.4757 37.5863C30.4758 37.3182 30.3681 37.0571 30.1791 36.8683Z" fill="#4E325F"/>
<path d="M55.967 16.3208C55.6898 15.8331 55.0694 15.6627 54.582 15.94C54.0944 16.2172 53.9239 16.8374 54.2013 17.325C57.2183 22.6304 56.3075 29.3538 51.9862 33.675L51.216 34.4452C51.03 33.957 50.7417 33.499 50.349 33.1064L39.9128 22.6703C40.5953 22.3346 41.2259 21.8866 41.7796 21.3329L43.7812 19.3312C44.1778 18.9346 44.1778 18.2915 43.7812 17.8949C43.3844 17.4982 42.7415 17.4982 42.3447 17.8949L40.3431 19.8965C39.4027 20.8368 38.1526 21.3547 36.8228 21.3547H32.8215C32.5522 21.3547 32.2939 21.4617 32.1033 21.6522L29.0402 24.7153C28.1306 25.625 26.6505 25.625 25.7409 24.7153C24.8312 23.8057 24.8312 22.3256 25.7409 21.416L32.7341 14.4229C37.0077 10.1492 43.6797 9.20933 48.9584 12.1374C49.4489 12.4093 50.0673 12.2324 50.3393 11.7418C50.6114 11.2512 50.4343 10.6329 49.9438 10.3608C47.0322 8.7461 43.6018 8.09986 40.2839 8.54175C37.179 8.95522 34.337 10.2553 32.0073 12.3183C29.1454 9.78112 25.502 8.39368 21.6447 8.39368C17.4658 8.39368 13.5372 10.021 10.5822 12.9759C7.62723 15.9307 6 19.8597 6 24.0385C6 28.2174 7.62734 32.146 10.5822 35.101L10.965 35.4837C11.0316 35.5503 11.1055 35.6047 11.1836 35.6489C11.2516 36.5276 11.6198 37.3872 12.2904 38.0578C13.0368 38.804 14.0166 39.177 14.9968 39.177C15.0477 39.177 15.0987 39.1753 15.1496 39.1733C15.1475 39.2247 15.1458 39.2761 15.1458 39.3278C15.1458 40.3501 15.5439 41.3113 16.2669 42.0342C17.0132 42.7805 17.9931 43.1536 18.9733 43.1535C19.0242 43.1535 19.0752 43.1518 19.126 43.1498C19.124 43.2012 19.1223 43.2526 19.1223 43.3043C19.1223 44.3266 19.5204 45.2878 20.2434 46.0107C20.9897 46.7569 21.9698 47.1299 22.9499 47.1299C23.0014 47.1299 23.0529 47.1283 23.1043 47.1263C23.0631 48.1572 23.4345 49.2019 24.2199 49.9874C24.9429 50.7103 25.9041 51.1084 26.9263 51.1084C27.9488 51.1084 28.91 50.7103 29.6328 49.9874L31.0523 48.5677L32.9697 50.4849C33.6926 51.208 34.6538 51.6061 35.6762 51.6061C36.6985 51.6061 37.6597 51.208 38.3826 50.485C39.1774 49.6902 39.5487 48.6298 39.4969 47.5868C39.5607 47.5899 39.6247 47.5917 39.6886 47.5917C40.6688 47.5917 41.649 47.2187 42.3952 46.4724C43.1802 45.6874 43.5516 44.6436 43.5108 43.6131C43.5622 43.6152 43.6136 43.6169 43.6653 43.6169C44.6876 43.6169 45.6488 43.2188 46.3717 42.4958C47.1567 41.7109 47.5281 40.667 47.4873 39.6365C47.5387 39.6386 47.59 39.6403 47.6417 39.6403C48.6641 39.6403 49.6253 39.2422 50.3482 38.5193C50.7153 38.1521 50.9918 37.728 51.1783 37.2753C51.2771 37.2272 51.37 37.1631 51.4522 37.081L53.4219 35.1113C58.3884 30.1458 59.4347 22.4188 55.967 16.3208ZM14.9969 37.1473C14.5171 37.1473 14.0661 36.9606 13.7268 36.6213C13.3876 36.282 13.2007 35.831 13.2007 35.3512C13.2007 34.8715 13.3875 34.4204 13.7268 34.0812L15.4771 32.3308C15.8163 31.9915 16.2675 31.8048 16.7472 31.8048C17.2269 31.8048 17.6781 31.9915 18.0173 32.3308C18.7177 33.0312 18.7177 34.1706 18.0173 34.8709L16.267 36.6214C15.9277 36.9605 15.4768 37.1473 14.9969 37.1473ZM17.7036 40.5979C17.3642 40.2587 17.1775 39.8076 17.1775 39.3279C17.1775 38.8481 17.3642 38.3971 17.7036 38.0579L19.454 36.3074C19.454 36.3074 19.454 36.3074 19.454 36.3073C19.7932 35.9681 20.2442 35.7812 20.724 35.7812C21.2037 35.7812 21.6548 35.968 21.9941 36.3073C22.6944 37.0077 22.6944 38.1471 21.9941 38.8474L20.2437 40.5978C19.5433 41.2981 18.4035 41.2981 17.7036 40.5979ZM21.68 44.5744C21.3407 44.2352 21.1539 43.7841 21.1539 43.3044C21.1539 42.8246 21.3407 42.3736 21.68 42.0343L23.4305 40.2839C23.4305 40.2839 23.4305 40.2839 23.4305 40.2838C23.7697 39.9446 24.2207 39.7577 24.7005 39.7577C25.1803 39.7577 25.6313 39.9445 25.9705 40.2838C26.6709 40.9843 26.6709 42.1237 25.9705 42.824L24.2201 44.5744C23.5198 45.2748 22.3804 45.2748 21.68 44.5744ZM29.9471 46.8007L28.1967 48.5512C27.8575 48.8904 27.4064 49.0773 26.9266 49.0773C26.447 49.0773 25.9958 48.8905 25.6566 48.5512C24.9562 47.8507 24.9562 46.7113 25.6566 46.011L27.407 44.2606C27.407 44.2606 27.407 44.2606 27.407 44.2605C27.7463 43.9213 28.1973 43.7344 28.6771 43.7344C29.1568 43.7344 29.6079 43.9212 29.9471 44.2605C30.2864 44.5997 30.4732 45.0508 30.4732 45.5305C30.4733 46.0105 30.2864 46.4614 29.9471 46.8007ZM48.9125 37.0829C48.5733 37.4222 48.1221 37.609 47.6425 37.609C47.1627 37.609 46.7116 37.4222 46.3724 37.0829L42.1447 32.8551C42.1445 32.8549 42.1444 32.8548 42.1442 32.8546L38.168 28.8784C37.7713 28.4818 37.1283 28.4818 36.7315 28.8784C36.3349 29.275 36.3349 29.9182 36.7315 30.3148L44.9359 38.5191C45.6363 39.2195 45.6363 40.359 44.9359 41.0592C44.5967 41.3986 44.1456 41.5853 43.6659 41.5853C43.1861 41.5853 42.7351 41.3986 42.3958 41.0592L34.1914 32.8549C33.7947 32.4584 33.1517 32.4584 32.7549 32.8549C32.3583 33.2515 32.3583 33.8947 32.7549 34.2914L36.7307 38.2671C36.731 38.2674 36.7313 38.2678 36.7316 38.2681L40.9594 42.4957C41.6598 43.1962 41.6598 44.3357 40.9595 45.036C40.2591 45.7364 39.1194 45.7364 38.4194 45.036L34.1915 40.8082C34.1133 40.7301 34.0255 40.6679 33.9319 40.6206L32.7261 39.4147C32.3294 39.0182 31.6864 39.0182 31.2896 39.4147C30.893 39.8113 30.893 40.4545 31.2896 40.8512L36.9468 46.5083C37.6472 47.2087 37.6472 48.3482 36.9468 49.0484C36.6076 49.3878 36.1564 49.5745 35.6768 49.5745C35.197 49.5745 34.7459 49.3878 34.4067 49.0484L32.254 46.8958C32.418 46.4655 32.5048 46.0047 32.5048 45.5304C32.5048 44.5081 32.1066 43.5469 31.3837 42.824C30.6607 42.1011 29.6995 41.7029 28.6773 41.7029C28.6256 41.7029 28.5742 41.7047 28.5228 41.7067C28.5635 40.6762 28.1922 39.6324 27.4072 38.8474C26.6842 38.1245 25.723 37.7264 24.7008 37.7264C24.6491 37.7264 24.5977 37.7281 24.5463 37.7301C24.5872 36.6997 24.2157 35.6558 23.4308 34.8708C22.7077 34.1479 21.7466 33.7498 20.7243 33.7498C20.6726 33.7498 20.6212 33.7515 20.5699 33.7535C20.6107 32.7231 20.2393 31.6792 19.4543 30.8942C17.9619 29.4019 15.5335 29.402 14.0411 30.8942L12.2908 32.6446C12.07 32.8654 11.8828 33.107 11.7272 33.3627C9.34141 30.8286 8.03186 27.5343 8.03186 24.0383C8.03186 20.402 9.44784 16.9833 12.0192 14.4122C14.5904 11.841 18.0092 10.4249 21.6453 10.4249C24.9497 10.4249 28.0744 11.5945 30.5466 13.7377L24.3049 19.9794C23.4806 20.8038 23.0266 21.8998 23.0266 23.0655C23.0266 24.2313 23.4806 25.3273 24.3049 26.1517C25.1558 27.0025 26.2735 27.4279 27.3911 27.4279C28.5087 27.4279 29.6264 27.0026 30.4773 26.1517L33.243 23.3859H36.8234C37.1191 23.3859 37.4115 23.3657 37.7003 23.3299L48.9131 34.5425C49.6128 35.2432 49.6128 36.3827 48.9125 37.0829Z" fill="#4E325F"/>
</svg>
