<svg width="24" height="24" viewBox="0 0 24 24" fill="none" xmlns="http://www.w3.org/2000/svg">
<path d="M23.4504 1.39364C22.718 0.660619 21.5316 0.660243 20.7987 1.39378L16.5661 5.63416C15.2947 4.67909 13.4611 4.76197 12.2811 5.94259L8.6031 9.62015C8.33568 9.55115 8.06039 9.5159 7.78116 9.5159C6.12627 9.5159 4.75365 10.7472 4.53142 12.3419C4.44348 12.3329 4.3548 12.3284 4.2656 12.3284C2.84404 12.3284 1.68752 13.4849 1.68752 14.9064C1.68752 14.985 1.69131 15.0632 1.6983 15.1408H0.468743C0.316261 15.1408 0.173342 15.215 0.0854999 15.3396C-0.00229543 15.4642 -0.0239982 15.6238 0.0273759 15.7674L2.55858 22.8454C2.62528 23.0318 2.8019 23.1563 2.99995 23.1563H6.37489C6.63373 23.1563 6.84363 22.9464 6.84363 22.6875C6.84363 22.1706 7.26418 21.7501 7.78111 21.7501H9.8905C10.1493 21.7501 10.3592 21.5402 10.3592 21.2813C10.3592 21.0224 10.1493 20.8126 9.8905 20.8126H7.78111C6.90906 20.8126 6.17412 21.411 5.96549 22.2188H3.33013L1.13417 16.0783H22.8654L20.6694 22.2188H18.034C17.8254 21.411 17.0905 20.8126 16.2184 20.8126H14.1091C13.8503 20.8126 13.6404 21.0224 13.6404 21.2813C13.6404 21.5402 13.8503 21.7501 14.1091 21.7501H16.2185C16.7354 21.7501 17.1559 22.1706 17.1559 22.6875C17.1559 22.9464 17.3658 23.1563 17.6247 23.1563H20.9996C21.1977 23.1563 21.3743 23.0318 21.441 22.8454L23.9722 15.7674C24.0236 15.6238 24.0019 15.4642 23.9141 15.3396C23.8262 15.215 23.6833 15.1408 23.5308 15.1408H22.2781C22.0544 13.5843 20.7344 12.3779 19.1281 12.3308C20.0988 11.1506 20.1081 9.47053 19.2178 8.2855L23.4501 4.04498C24.1828 3.31285 24.1836 2.12623 23.4504 1.39364ZM21.3275 15.1408H2.64183C2.63086 15.0636 2.62495 14.9854 2.62495 14.9064C2.62495 14.0018 3.36093 13.2658 4.26555 13.2658C4.45412 13.2658 4.63872 13.2974 4.81407 13.3597C5.12471 13.4701 5.45109 13.2329 5.43947 12.9015C5.39025 11.5163 6.48823 10.4534 7.78111 10.4534C9.08801 10.4534 10.1248 11.516 10.1248 12.7971C10.1248 13.056 10.3347 13.2658 10.5936 13.2658C10.8524 13.2658 11.0623 13.056 11.0623 12.7971C11.0623 12.4896 11.0202 12.1894 10.9377 11.8996C11.0963 11.8644 11.2609 11.852 11.429 11.8647C11.8659 11.8995 12.2633 12.1035 12.548 12.439C12.7204 12.6421 13.0274 12.6608 13.2232 12.4802C13.6571 12.08 14.2214 11.8596 14.8122 11.8596C15.8347 11.8596 16.7056 12.5181 17.0243 13.427C17.1256 13.7157 17.4728 13.8318 17.7272 13.6615C18.1216 13.3978 18.575 13.2657 19.0309 13.2657C20.1628 13.2658 21.1097 14.0723 21.3275 15.1408ZM22.787 3.38223L18.2468 7.93137C18.0641 8.11446 18.0642 8.41098 18.2471 8.59393C19.163 9.50976 19.1632 10.9922 18.247 11.9084L17.6304 12.5253C17.3028 11.9776 16.8204 11.535 16.249 11.255L16.9212 10.5828C17.1042 10.3998 17.1042 10.103 16.9212 9.91986C16.7381 9.73682 16.4414 9.73682 16.2583 9.91986L15.2286 10.9495C15.0906 10.932 14.9515 10.9221 14.8122 10.9221C14.1359 10.9221 13.4843 11.1286 12.937 11.5102C12.7639 11.3668 12.5739 11.2479 12.3715 11.1552L14.9327 8.59389C15.1158 8.41084 15.1158 8.11403 14.9327 7.93099C14.7497 7.74795 14.4529 7.74795 14.2698 7.93099L11.2782 10.9226C11.0301 10.9244 10.7831 10.9618 10.5468 11.0334C10.2857 10.6257 9.93606 10.2792 9.52783 10.0211L12.9439 6.60539C13.8598 5.68919 15.3421 5.68905 16.2581 6.60539C16.4413 6.78867 16.7383 6.78848 16.9213 6.60515L21.4619 2.0562C21.8232 1.69457 22.4165 1.68533 22.7874 2.05648C23.1512 2.41995 23.1566 3.01295 22.787 3.38223Z" fill="black"/>
</svg>
