<svg width="198" height="80" viewBox="0 0 198 80" fill="none" xmlns="http://www.w3.org/2000/svg">
<g filter="url(#filter0_d_1_24)">
<path d="M15 17C15 13.134 18.134 10 22 10H54C57.866 10 61 13.134 61 17V49C61 52.866 57.866 56 54 56H37.2329C35.8167 56 34.4724 56.6235 33.5577 57.7045L33.1436 58.194C31.3061 60.3655 27.9084 60.201 26.2893 57.8623C25.4818 56.696 24.1535 56 22.735 56H21.5619C17.9379 56 15 53.0621 15 49.4381V17Z" fill="black"/>
</g>
<g clip-path="url(#clip0_1_24)">
<path d="M42.311 33.5902C41.4535 31.5819 39.6561 30.1668 37.5027 29.8049C35.3494 29.4431 33.1881 30.1931 31.7215 31.8109L28.187 35.709C27.6005 36.3557 27.2454 37.1571 27.16 38.0259C27.0746 38.895 27.2671 39.7499 27.7164 40.4989C28.1663 41.2474 28.8308 41.819 29.6382 42.152C30.4456 42.485 31.32 42.5476 32.1669 42.3335L32.2236 42.319C34.3515 41.7976 36.6176 42.1865 38.4505 43.3894C38.9233 43.6996 39.4452 43.904 39.991 43.9957C40.2877 44.0456 40.5919 44.0621 40.899 44.0444C41.7709 43.9937 42.5857 43.6707 43.2557 43.1102C43.9253 42.5499 44.3869 41.8046 44.5904 40.9552C44.7939 40.1058 44.7202 39.2326 44.3774 38.4294L42.311 33.5902Z" fill="#F4CB38"/>
<path d="M29.6763 31.4613C30.5632 31.2813 31.3089 30.7163 31.7761 29.8703C32.2207 29.0653 32.3584 28.0952 32.1636 27.1386C31.9684 26.1825 31.4622 25.3437 30.7382 24.7765C29.9776 24.1809 29.0704 23.9522 28.1848 24.1331C26.4034 24.4953 25.288 26.434 25.6985 28.456C26.0274 30.0657 27.2265 31.2484 28.6009 31.4794C28.9518 31.5383 29.3142 31.5352 29.6763 31.4613Z" fill="#F4CB38"/>
<path d="M35.6852 28.9517C37.7771 29.3032 39.8048 27.6502 40.2052 25.2669C40.6058 22.883 39.2298 20.6577 37.1379 20.3062C35.0463 19.9547 33.0187 21.6081 32.6181 23.992C32.2177 26.3753 33.5935 28.6002 35.6852 28.9517Z" fill="#F4CB38"/>
<path d="M42.0586 31.1145L42.0588 31.1145C42.3626 31.2754 42.6824 31.3816 43.0093 31.4365C44.5348 31.6928 46.2081 30.8323 47.0621 29.2212C47.5539 28.2938 47.7069 27.2516 47.493 26.2866C47.2693 25.2765 46.6755 24.4708 45.8208 24.0178C44.9659 23.5648 43.9657 23.5258 43.0042 23.9076C42.0856 24.2724 41.3092 24.9842 40.8178 25.9116C39.7809 27.868 40.3376 30.202 42.0586 31.1145Z" fill="#F4CB38"/>
<path d="M50.1327 31.9525L50.1322 31.9518C48.8686 30.6438 46.6336 30.7431 45.1493 32.1738C43.6662 33.6054 43.4858 35.8349 44.7471 37.1433C45.207 37.6208 45.7964 37.9111 46.4317 38.0178C47.5389 38.2039 48.7858 37.8323 49.7305 36.9225C51.2135 35.4908 51.394 33.2614 50.1327 31.9525Z" fill="#F4CB38"/>
</g>
<path d="M91.446 26.4V39H87.198V34.356H83.274V39H79.026V26.4H83.274V30.864H87.198V26.4H91.446ZM103.249 36.804H98.4608L97.6148 39H93.2948L98.8028 26.4H102.979L108.487 39H104.095L103.249 36.804ZM102.079 33.744L100.855 30.576L99.6308 33.744H102.079ZM116.401 26.4C117.565 26.4 118.579 26.592 119.443 26.976C120.307 27.36 120.973 27.912 121.441 28.632C121.909 29.352 122.143 30.192 122.143 31.152C122.143 32.112 121.909 32.952 121.441 33.672C120.973 34.392 120.307 34.944 119.443 35.328C118.579 35.712 117.565 35.904 116.401 35.904H114.583V39H110.335V26.4H116.401ZM116.131 32.628C116.707 32.628 117.139 32.502 117.427 32.25C117.715 31.986 117.859 31.62 117.859 31.152C117.859 30.684 117.715 30.324 117.427 30.072C117.139 29.808 116.707 29.676 116.131 29.676H114.583V32.628H116.131ZM130.772 26.4C131.936 26.4 132.95 26.592 133.814 26.976C134.678 27.36 135.344 27.912 135.812 28.632C136.28 29.352 136.514 30.192 136.514 31.152C136.514 32.112 136.28 32.952 135.812 33.672C135.344 34.392 134.678 34.944 133.814 35.328C132.95 35.712 131.936 35.904 130.772 35.904H128.954V39H124.706V26.4H130.772ZM130.502 32.628C131.078 32.628 131.51 32.502 131.798 32.25C132.086 31.986 132.23 31.62 132.23 31.152C132.23 30.684 132.086 30.324 131.798 30.072C131.51 29.808 131.078 29.676 130.502 29.676H128.954V32.628H130.502ZM146.565 34.428V39H142.317V34.374L137.565 26.4H142.047L144.621 30.756L147.213 26.4H151.317L146.565 34.428ZM165.659 26.4C166.823 26.4 167.837 26.592 168.701 26.976C169.565 27.36 170.231 27.912 170.699 28.632C171.167 29.352 171.401 30.192 171.401 31.152C171.401 32.112 171.167 32.952 170.699 33.672C170.231 34.392 169.565 34.944 168.701 35.328C167.837 35.712 166.823 35.904 165.659 35.904H163.841V39H159.593V26.4H165.659ZM165.389 32.628C165.965 32.628 166.397 32.502 166.685 32.25C166.973 31.986 167.117 31.62 167.117 31.152C167.117 30.684 166.973 30.324 166.685 30.072C166.397 29.808 165.965 29.676 165.389 29.676H163.841V32.628H165.389ZM184.44 35.796V39H173.964V26.4H184.206V29.604H178.14V31.08H183.468V34.14H178.14V35.796H184.44ZM189.981 29.694H186.291V26.4H197.919V29.694H194.229V39H189.981V29.694Z" fill="black"/>
<defs>
<filter id="filter0_d_1_24" x="0" y="0" width="76" height="79.7246" filterUnits="userSpaceOnUse" color-interpolation-filters="sRGB">
<feFlood flood-opacity="0" result="BackgroundImageFix"/>
<feColorMatrix in="SourceAlpha" type="matrix" values="0 0 0 0 0 0 0 0 0 0 0 0 0 0 0 0 0 0 127 0" result="hardAlpha"/>
<feOffset dy="5"/>
<feGaussianBlur stdDeviation="7.5"/>
<feColorMatrix type="matrix" values="0 0 0 0 0 0 0 0 0 0 0 0 0 0 0 0 0 0 0.33 0"/>
<feBlend mode="normal" in2="BackgroundImageFix" result="effect1_dropShadow_1_24"/>
<feBlend mode="normal" in="SourceGraphic" in2="effect1_dropShadow_1_24" result="shape"/>
</filter>
<clipPath id="clip0_1_24">
<rect width="26.1895" height="26.1895" fill="white" transform="translate(27.3399 17) rotate(9.53851)"/>
</clipPath>
</defs>
</svg>
