<svg width="29" height="29" viewBox="0 0 29 29" fill="none" xmlns="http://www.w3.org/2000/svg">
<g clip-path="url(#clip0_1190_259)">
<path d="M19.3928 15.3695C18.0878 13.3337 15.8653 12.1182 13.4475 12.1182C11.0297 12.1182 8.80718 13.3337 7.50245 15.3695L4.35801 20.2748C3.8363 21.0886 3.59557 22.0289 3.66173 22.9934C3.72788 23.958 4.09494 24.8563 4.72308 25.5918C5.35166 26.3265 6.18224 26.8288 7.12499 27.0443C8.06775 27.2598 9.03418 27.1677 9.91963 26.7786L9.97893 26.7522C12.2069 25.7924 14.7529 25.8013 16.9752 26.7786C17.5484 27.0306 18.1558 27.158 18.7686 27.158C19.1018 27.158 19.437 27.1202 19.7691 27.0445C20.7119 26.8292 21.5425 26.327 22.1713 25.592C22.7996 24.8572 23.1669 23.9587 23.2333 22.9938C23.2997 22.0289 23.0589 21.0888 22.5372 20.2746L19.3928 15.3695Z" fill="#F52456"/>
<path d="M5.20496 15.3631C6.14041 15.0038 6.85107 14.25 7.20596 13.2404C7.54382 12.2797 7.51616 11.1951 7.12786 10.1862C6.73934 9.17797 6.03266 8.35491 5.13792 7.86838C4.19804 7.3575 3.16545 7.27431 2.23154 7.63429C0.35267 8.35668 -0.509551 10.6785 0.309747 12.8112C0.964211 14.5086 2.49063 15.5801 4.03387 15.5801C4.42792 15.5801 4.82307 15.5102 5.20496 15.3631Z" fill="#F52456"/>
<path d="M11.3062 11.52C13.655 11.52 15.566 9.34283 15.566 6.66678C15.566 3.99007 13.655 1.8125 11.3062 1.8125C8.95763 1.8125 7.04689 3.99007 7.04689 6.66678C7.04689 9.34283 8.95763 11.52 11.3062 11.52Z" fill="#F52456"/>
<path d="M18.6629 12.7123H18.6631C19.0244 12.8322 19.393 12.8895 19.7601 12.8895C21.473 12.8895 23.1423 11.6427 23.7793 9.7267C24.1462 8.62375 24.122 7.45753 23.7114 6.44309C23.2817 5.38108 22.4854 4.61023 21.469 4.27238C20.4524 3.93453 19.353 4.07547 18.373 4.66887C17.4369 5.23571 16.7196 6.15546 16.3532 7.2584C15.5799 9.58509 16.6161 12.0317 18.6629 12.7123Z" fill="#F52456"/>
<path d="M27.6335 12.1459L27.6329 12.1452C26.0131 10.9487 23.5906 11.4673 22.2323 13.3019C20.8754 15.1374 21.0876 17.6051 22.7049 18.8025C23.2948 19.2394 23.9917 19.4483 24.705 19.4483C25.9483 19.4483 27.2417 18.8138 28.1064 17.6469C29.4631 15.8114 29.2511 13.3437 27.6335 12.1459Z" fill="#F52456"/>
</g>
<defs>
<clipPath id="clip0_1190_259">
<rect width="29" height="29" fill="white"/>
</clipPath>
</defs>
</svg>
